<?xml version="1.0" encoding="UTF-8" standalone="no"?>
<!DOCTYPE svg PUBLIC "-//W3C//DTD SVG 1.1//EN"
 "http://www.w3.org/Graphics/SVG/1.1/DTD/svg11.dtd">
<!-- Generated by graphviz version 2.43.0 (0)
 -->
<!-- Title: Layouts Pages: 1 -->
<svg width="373pt" height="240pt"
 viewBox="0.00 0.00 373.31 239.96" xmlns="http://www.w3.org/2000/svg" xmlns:xlink="http://www.w3.org/1999/xlink">
<g id="graph0" class="graph" transform="scale(1 1) rotate(0) translate(4 235.96)">
<title>Layouts</title>
<polygon fill="white" stroke="transparent" points="-4,4 -4,-235.96 369.31,-235.96 369.31,4 -4,4"/>
<!-- graphviz -->
<g id="node1" class="node">
<title>graphviz</title>
<text text-anchor="middle" x="105.96" y="-105.06" font-family="Times,serif" font-size="14.00">graphviz</text>
</g>
<!-- dot -->
<g id="node2" class="node">
<title>dot</title>
<text text-anchor="middle" x="184.49" y="-59.41" font-family="Times,serif" font-size="14.00">dot</text>
</g>
<!-- graphviz&#45;&gt;dot -->
<g id="edge1" class="edge">
<title>graphviz&#45;&gt;dot</title>
<path fill="none" stroke="black" d="M137,-90.72C140.81,-88.51 144.73,-86.23 148.6,-83.97"/>
<polygon fill="black" stroke="black" points="150.61,-86.86 157.49,-78.81 147.09,-80.81 150.61,-86.86"/>
</g>
<!-- neato -->
<g id="node3" class="node">
<title>neato</title>
<text text-anchor="middle" x="105.78" y="-14.3" font-family="Times,serif" font-size="14.00">neato</text>
</g>
<!-- graphviz&#45;&gt;neato -->
<g id="edge2" class="edge">
<title>graphviz&#45;&gt;neato</title>
<path fill="none" stroke="black" d="M105.92,-90.4C105.9,-77.77 105.86,-60.75 105.84,-46.38"/>
<polygon fill="black" stroke="black" points="109.34,-46.02 105.82,-36.03 102.34,-46.04 109.34,-46.02"/>
</g>
<!-- fdp -->
<g id="node4" class="node">
<title>fdp</title>
<text text-anchor="middle" x="28.14" y="-151.76" font-family="Times,serif" font-size="14.00">fdp</text>
</g>
<!-- graphviz&#45;&gt;fdp -->
<g id="edge3" class="edge">
<title>graphviz&#45;&gt;fdp</title>
<path fill="none" stroke="black" d="M75.65,-126.95C71.86,-129.23 67.95,-131.57 64.08,-133.89"/>
<polygon fill="black" stroke="black" points="61.97,-131.08 55.2,-139.22 65.58,-137.08 61.97,-131.08"/>
</g>
<!-- sfdp -->
<g id="node5" class="node">
<title>sfdp</title>
<text text-anchor="middle" x="185.14" y="-149.65" font-family="Times,serif" font-size="14.00">sfdp</text>
</g>
<!-- graphviz&#45;&gt;sfdp -->
<g id="edge4" class="edge">
<title>graphviz&#45;&gt;sfdp</title>
<path fill="none" stroke="black" d="M138.16,-126.9C141.72,-128.91 145.36,-130.96 148.97,-132.99"/>
<polygon fill="black" stroke="black" points="147.35,-136.09 157.78,-137.95 150.78,-129.99 147.35,-136.09"/>
</g>
<!-- twopi -->
<g id="node6" class="node">
<title>twopi</title>
<text text-anchor="middle" x="107.54" y="-195.87" font-family="Times,serif" font-size="14.00">twopi</text>
</g>
<!-- graphviz&#45;&gt;twopi -->
<g id="edge5" class="edge">
<title>graphviz&#45;&gt;twopi</title>
<path fill="none" stroke="black" d="M106.28,-127.14C106.5,-139.78 106.8,-156.81 107.05,-171.18"/>
<polygon fill="black" stroke="black" points="103.55,-171.6 107.23,-181.53 110.55,-171.48 103.55,-171.6"/>
</g>
<!-- circo -->
<g id="node7" class="node">
<title>circo</title>
<text text-anchor="middle" x="27" y="-60.39" font-family="Times,serif" font-size="14.00">circo</text>
</g>
<!-- graphviz&#45;&gt;circo -->
<g id="edge6" class="edge">
<title>graphviz&#45;&gt;circo</title>
<path fill="none" stroke="black" d="M73.84,-90.59C70.3,-88.58 66.66,-86.53 63.07,-84.5"/>
<polygon fill="black" stroke="black" points="64.71,-81.4 54.28,-79.52 61.26,-87.5 64.71,-81.4"/>
</g>
<!-- blockdiag -->
<g id="node8" class="node">
<title>blockdiag</title>
<text text-anchor="middle" x="222.5" y="-210.26" font-family="Times,serif" font-size="14.00">blockdiag</text>
</g>
<!-- seqdiag -->
<g id="node9" class="node">
<title>seqdiag</title>
<text text-anchor="middle" x="329.31" y="-194.3" font-family="Times,serif" font-size="14.00">seqdiag</text>
</g>
<!-- blockdiag&#45;&gt;seqdiag -->
<g id="edge7" class="edge">
<title>blockdiag&#45;&gt;seqdiag</title>
<path fill="none" stroke="black" d="M265.02,-207.61C270.99,-206.71 277.14,-205.8 283.17,-204.89"/>
<polygon fill="black" stroke="black" points="283.76,-208.34 293.13,-203.41 282.73,-201.42 283.76,-208.34"/>
</g>
</g>
</svg>
